<?xml version="1.0" encoding="UTF-8" standalone="no"?>
<svg
   xmlns:dc="http://purl.org/dc/elements/1.1/"
   xmlns:cc="http://creativecommons.org/ns#"
   xmlns:rdf="http://www.w3.org/1999/02/22-rdf-syntax-ns#"
   xmlns:svg="http://www.w3.org/2000/svg"
   xmlns="http://www.w3.org/2000/svg"
   xmlns:sodipodi="http://sodipodi.sourceforge.net/DTD/sodipodi-0.dtd"
   xmlns:inkscape="http://www.inkscape.org/namespaces/inkscape"
   id="svg2"
   viewBox="0 0 638.96 296.92"
   version="1.1"
   sodipodi:docname="flux-restful.svg"
   inkscape:version="0.92.5 (2060ec1f9f, 2020-04-08)">
  <metadata
     id="metadata947">
    <rdf:RDF>
      <cc:Work
         rdf:about="">
        <dc:format>image/svg+xml</dc:format>
        <dc:type
           rdf:resource="http://purl.org/dc/dcmitype/StillImage" />
        <dc:title>Flux-logo-3</dc:title>
      </cc:Work>
    </rdf:RDF>
  </metadata>
  <sodipodi:namedview
     pagecolor="#ffffff"
     bordercolor="#666666"
     borderopacity="1"
     objecttolerance="10"
     gridtolerance="10"
     guidetolerance="10"
     inkscape:pageopacity="0"
     inkscape:pageshadow="2"
     inkscape:window-width="2488"
     inkscape:window-height="1376"
     id="namedview945"
     showgrid="false"
     inkscape:zoom="3.0393138"
     inkscape:cx="319.48001"
     inkscape:cy="148.46001"
     inkscape:window-x="72"
     inkscape:window-y="27"
     inkscape:window-maximized="1"
     inkscape:current-layer="svg2" />
  <defs
     id="defs935">
    <style
       id="style933">.cls-1{fill:#91c2d8;}.cls-2{fill:#036291;}</style>
  </defs>
  <title
     id="title937">Flux-logo-3</title>
  <path
     style="fill:#91c2d8;stroke-width:0.33861104;fill-opacity:1"
     d="m 99.31915,154.12788 c -1.27821,-1.01929 -1.14689,-2.04719 1.05385,-8.24908 1.12042,-3.15744 2.22181,-6.18463 2.44753,-6.7271 0.39035,-0.93809 0.35078,-1.01036 -0.80948,-1.47843 -0.67095,-0.27066 -2.22451,-1.09493 -3.45236,-1.83169 l -2.232472,-1.33957 -4.344903,5.31042 c -2.389698,2.92074 -4.728559,5.57503 -5.197466,5.89843 -1.830886,1.26271 -4.627784,-0.65824 -4.115067,-2.82631 0.119839,-0.50667 2.228352,-3.3224 4.685631,-6.2572 l 4.467779,-5.33598 -0.757656,-0.73458 c -0.416714,-0.40402 -1.204256,-1.1769 -1.750101,-1.71751 -2.378028,-2.35527 -1.709197,-2.53605 -7.4444,2.01228 -6.428851,5.09845 -6.415375,5.0901 -7.722355,4.78046 -1.297513,-0.30736 -1.959328,-1.03644 -2.14724,-2.36532 -0.196626,-1.3905 0.252819,-1.86207 6.364263,-6.67761 l 5.229218,-4.12038 -1.077519,-1.65376 c -0.832607,-1.27787 -1.021829,-1.89952 -0.8325,-2.735 0.308018,-1.35925 1.405215,-2.22153 2.770511,-2.17731 0.862699,0.0279 1.271862,0.30964 2.252532,1.55087 3.440634,4.35478 6.03281,7.21197 8.31832,9.16872 2.890552,2.47479 7.769985,5.49134 11.267295,6.96566 3.05297,1.287 10.2261,2.91299 13.53954,3.06921 7.64957,0.36043 15.34231,-1.41609 23.37029,-5.39702 2.31028,-1.14563 3.57371,-1.08988 4.44976,0.19634 1.16114,1.70481 0.49303,3.52868 -1.63493,4.46317 -0.62292,0.27355 -1.15787,0.60902 -1.18879,0.74549 -0.0309,0.13646 1.28005,2.96773 2.91327,6.29171 2.75141,5.59974 3.06221,6.55054 2.57017,7.86269 -0.35127,0.93677 -1.86572,1.66039 -2.95729,1.41303 -1.38233,-0.31324 -1.60436,-0.65084 -4.90344,-7.45559 -1.53653,-3.16928 -2.8876,-5.74091 -3.00238,-5.71471 -1.97236,0.44997 -5.99561,1.83654 -6.05209,2.0858 -0.0413,0.18229 0.68117,3.19918 1.60553,6.70419 0.92435,3.50503 1.58994,6.77304 1.47908,7.26226 -0.29039,1.28146 -1.92152,2.20414 -3.3316,1.8846 -1.57681,-0.35732 -1.97268,-1.27837 -3.77814,-8.79045 -1.15386,-4.80093 -1.64629,-6.28992 -2.06027,-6.22962 -0.2992,0.0436 -2.029,0.12608 -3.84399,0.18333 -1.81499,0.0573 -3.35328,0.13768 -3.41841,0.17875 -0.0651,0.0411 -0.42039,3.1825 -0.78947,6.98098 -0.72357,7.44687 -0.88268,7.9629 -2.65974,8.62611 -1.2086,0.45104 -2.75874,-0.22772 -3.19603,-1.39946 -0.23819,-0.63821 0.63375,-12.50959 1.0746,-14.63064 0.0289,-0.13666 -1.34702,-0.56564 -3.05655,-0.95304 l -3.10823,-0.70435 -0.47145,1.19515 c -0.2593,0.65733 -1.32957,3.60162 -2.37837,6.54286 -1.04882,2.94124 -2.05567,5.57021 -2.23746,5.84215 -0.3565,0.53331 -2.15083,1.11265 -2.84221,0.91767 -0.23327,-0.0658 -0.71245,-0.34953 -1.06483,-0.63052 z m 89.82307,19.75257 c -0.41062,-0.65124 -0.68442,-1.45541 -0.60847,-1.78707 0.0759,-0.33168 1.16505,-3.41694 2.42022,-6.85618 1.25517,-3.43925 2.30369,-6.3455 2.33006,-6.45833 0.0263,-0.11287 -0.48888,-0.42176 -1.14498,-0.68648 -0.65611,-0.26471 -2.19753,-1.08411 -3.42538,-1.82087 l -2.23247,-1.33957 -4.34491,5.31042 c -2.38969,2.92074 -4.72856,5.57503 -5.19746,5.89843 -1.80806,1.24698 -4.61723,-0.65044 -4.13216,-2.79102 0.11041,-0.48725 2.24746,-3.30223 4.74899,-6.25553 2.50153,-2.9533 4.50708,-5.42605 4.45679,-5.495 -0.0503,-0.0689 -0.55205,-0.50595 -1.115,-0.9711 -0.56295,-0.46513 -1.54846,-1.4114 -2.19001,-2.10281 -0.64156,-0.6914 -1.23874,-1.27346 -1.32706,-1.29348 -0.0884,-0.02 -2.48959,1.81846 -5.33614,4.08552 -2.84655,2.26705 -5.52841,4.31538 -5.9597,4.55182 -1.92588,1.05582 -4.24789,-0.79907 -3.75012,-2.9957 0.2046,-0.90284 1.20526,-1.85531 5.81887,-5.53864 l 5.57178,-4.44829 -1.05267,-1.70477 c -0.76032,-1.23132 -0.99054,-1.97897 -0.82895,-2.69207 0.29915,-1.32008 1.31074,-2.17971 2.55532,-2.17145 1.24657,0.008 1.96182,0.59455 3.67692,3.01384 6.17767,8.7141 16.87265,15.53092 26.89625,17.14328 9.90211,1.59282 17.98168,0.22759 28.4064,-4.79991 2.78229,-1.34181 4.33731,-0.99557 4.87866,1.08627 0.39472,1.51793 -0.29775,2.80299 -1.90678,3.53851 -0.72812,0.33283 -1.346,0.70292 -1.37308,0.82242 -0.0271,0.11951 1.24749,2.84972 2.83238,6.06713 1.58489,3.21742 2.93309,6.21389 2.99602,6.65881 0.13475,0.953 -0.65622,2.28366 -1.6173,2.72079 -0.95666,0.43512 -2.73868,-0.0446 -3.25949,-0.8774 -0.24529,-0.39225 -1.71415,-3.30303 -3.26414,-6.46843 -1.55,-3.16539 -2.85534,-5.76368 -2.90076,-5.77397 -0.0776,-0.0176 -5.81706,1.81282 -6.1289,1.9546 -0.0795,0.0361 0.60673,3.04068 1.52497,6.67673 0.91822,3.63606 1.5807,7.00292 1.47215,7.48192 -0.28603,1.26224 -1.92809,2.18312 -3.32738,1.86603 -1.57682,-0.35732 -1.97269,-1.27838 -3.77814,-8.79046 -1.15386,-4.80093 -1.64629,-6.28992 -2.06028,-6.22961 -0.2992,0.0436 -2.02899,0.12608 -3.84398,0.18333 -1.815,0.0572 -3.34028,0.13088 -3.3895,0.16363 -0.0493,0.0327 -0.40597,3.16815 -0.79274,6.96755 -0.78086,7.67071 -1.04014,8.44285 -2.94472,8.7695 -1.23256,0.21139 -2.74936,-0.66323 -3.05099,-1.75935 -0.099,-0.35968 0.0862,-3.22577 0.41146,-6.36907 0.32529,-3.1433 0.63186,-6.29183 0.68125,-6.99673 l 0.0898,-1.28163 -3.10824,-0.70436 c -1.70953,-0.38739 -3.13548,-0.59335 -3.1688,-0.45768 -0.38314,1.56044 -4.78116,13.09206 -5.15969,13.5287 -0.50743,0.58531 -1.86654,0.93692 -2.80209,0.72492 -0.2746,-0.0622 -0.83522,-0.64596 -1.24583,-1.2972 z"
     id="path962"
     inkscape:connector-curvature="0" />
  <g
     inkscape:groupmode="layer"
     id="layer2"
     inkscape:label="flux-logo">
    <path
       style=""
       id="path2998"
       class="cls-1"
       d="M189.83-.86c-3.31.84-2.28.81-5.72,16-2.42,10.69-5.29,20.56-10.4,30.31-5.23,10-10.12,20-14.88,30.12-9.06-23-30-41-54.78-44.34C74.94,26.32,45.62,42.33,29.7,66.08,18.64,81.16,14,97.45,7.51,114.67c-1.52,2.21-2.95,4.5-4.68,6.55-2.2,2.61-4.7,5.43,2.6,6.35,1.3.36,1.31.67,1.17,1.82A149.49,149.49,0,0,0,6,145.09a119.78,119.78,0,0,0,.67,12.7,97.77,97.77,0,0,0,5.79,24.55A76.08,76.08,0,0,0,26.78,206C41.53,222.42,64,232,86.32,229.65c14.33-.57,28-7.56,38.85-16.48-5.5,19.19-7.41,41.51-23.47,55.25-4.85,3.8-12.53,6.59-18.15,3.79-.77-.39.41-5.66.47-6.28.32-3,.31-6.17-1.09-8.94a14.53,14.53,0,0,0-6.12-5.83c-3.25-1.81-7.1-2.89-10.71-2s-6.55,3.62-8.64,6.71c-2.66,3.92-4.24,9-2.45,13.41,1.58,3.87,5.41,6.35,9.26,8,20.72,8.89,41.83-1.64,59.83-11.91a1.13,1.13,0,0,1,1.69,1.16c-.57,4.1-1.58,10.44-2.5,10.15-6.89-1.37-7.83-4.34-5.59,5.94,1.76,8.81,2.92,13,4.26,13.35,1.92.44,13.33-14.29,13.33-14.29,2.8-3.95-1.29-2.87-5.16-3.67-.68-.14,0-1.76.25-3.35.81-4.81,3.5-18.82,8.77-27.75a199.87,199.87,0,0,0,14.57-30.47c9.79,25,34.6,45.4,61.79,46.68,30.22,2.54,58.25-16.76,72.69-42.27a125.58,125.58,0,0,0,11.29-22.27c5.38,1.39,9.14,3.26,5.12-6-2.62-15.31,3.62-28.34,2.72-43.75,1.39-32.23-15.3-66.29-45.7-79.37C238.16,58.85,208,63.68,188.37,80.11c5.47-18.72,10.18-41.32,24.91-55.28,6-5.19,15.55-6.75,23.08-4.75-.3-.08-.7,6.58-.67,7.19.1,2.54.31,6.22,1.69,8.43,2.91,4.63,7.8,6.19,11.45,6.68a16.35,16.35,0,0,0,10.31-2.46c5-3.26,8.71-12.74,5.16-19.59-5.17-10-25-13.1-39.05-12-14,1.67-26.35,11.14-37.8,19,1.66-8.91,3.44-17.69,5.31-26.69A2.39,2.39,0,0,0,189.83-.86ZM93.48,36.67C121.81,35.57,149.67,57,155.2,85c0,3.08-2.31-2.43-2.69-2.93C142,61.2,118.07,48.57,94.89,51.85c-24.42,2.6-43.63,22.13-53,43.7-5,11.14-6.06,24-14.5,32.7-6.23,6.46,3.54,4.57,4,6.18.42,1.44-.19,4.59-.28,6-1.52,25.85,9.23,54.17,33.05,66.63,20.1,10.87,47.26,8.26,64-7.53C125.46,207.33,118,213.5,110.92,217c-14.59,8.74-32.7,8.66-49,4.79-13-3.1-24.71-12.38-32.44-23.05-8.5-11.74-13.26-23.85-15.83-38-1.65-9-1.31-21.11-.89-30.57,0-.51-.3-1.13,1-.85,9.41,2.09,4.08-1.27,1.41-12.25-.31-14.26,8.17-26.16,14-38.73C41.32,54.66,66.12,35.89,93.48,36.67Zm6.66,21C119,56,136.29,66.33,146.26,83c3.36,6.22,1.86,4.88-1.62,3.07-5.68-3.85-13-9.69-20.91-12.16-12.59-3.59-26.61-2-37.4,5.63-15.67,10-23.22,27.88-28.52,44.93-.72,3.48-3.9,8.33-6.41,11.38-3.19,3.87,0,4,.89,4.14,1.87.3,4.06.42,4,2.61C55.19,161.4,62.16,180.68,78.73,191c15.87,10.25,39.13,8.72,52.47-5.1-3.41,7.8-11.39,12.94-18.58,17-18.46,9-42,5.33-56.86-8.88-11.84-10.93-17.2-26.88-18.34-42.62a88.62,88.62,0,0,1,.22-16.53c1.4,0,5,2,6.11.71s-2.45-4.64-3.49-10.84c-.58-14.27,6.42-26.53,13.35-38.66C63.47,70.41,80.81,57.14,100.14,57.64ZM234.19,69.13c27.44.3,54.68,21.42,62.79,48.32a114.6,114.6,0,0,1-.06,64.6c-2,6.65-10,9.53-9.66,12.19,3,2,6.62,1.84,5.7,3.32-9.08,24.11-27.68,48.73-52.93,56.77-11.84,3.06-25.05,4.06-36.89.84-15.48-4.62-29.33-14.19-37.38-28.31-3.32-6.19-9.09-13.9-7.35-21.21,8.61,23.66,35.05,39.79,60,36.27,25.76-2.59,45.7-23.86,54.7-47.07,1.36-2.51-.27-3,4.52-.8,7,4,3.71-2.47,3.09-9.6-1.38-3.87,1.62-16.12,2.32-39.75.68-26.7-17.1-53.5-42.91-62-12.92-4.32-27.28-3-40,1.26-2.36.45-5.82.93-7.66.59,11.83-9.23,26-15.55,41.71-15.45ZM109.76,78.2a40.93,40.93,0,0,1,26.79,10c-5.31,1.24-9.67-1.36-15.58,1.35-1.7.78-3.11,4.81-3.43,6.45-.94,5,5,4.27,8.15,4.33,6.08.1,12.18-.14,18.26.19,2.58.29,3.09,4.25,3.29,6.23.32,3.36-.34,6.69-.85,10-1.56,10-3.82,19.81-6.21,29.61-1.69,7-3.79,13.91-5.07,21-2.92,16-20.06,25.8-35.44,24.06-21.42.14-37.24-21.31-37.12-41.62-.17-9.16-.38-8.3,4.24-8,.35,0,.69.14,1.09.17,3.33.25.35-3.68-.13-5.13-2.68-8-4.29-11.46,1.23-26,6.38-16.56,20.77-32.51,39.69-32.53A4.41,4.41,0,0,0,109.76,78.2Zm120.38,8.29C257.37,89.73,278,117.33,277,144c.23,14.18-1.13,34.63-12.47,41.1-5.16,3.53-.41,3.78,4.44,5.65-7.57,21.24-24.37,40.64-47.4,44.75a50.67,50.67,0,0,1-46.38-13.87c-5.8-6.46-11.81-15.27-13.82-23.62-.38-4.08.08-5.33,1.55-1.33,7.69,15.86,26.93,27,44.55,24.82,20.36-1.83,35.12-16.33,42.4-34.37,5,2.75,7,3.5,6.24-1.93-3.3-15.65,3.69-31.3.58-47.07C254.75,119.72,237.91,101,221,96.23c5.18-.31,6.7-6,6.72-10Zm-33.43,12c-4.13,1.45-12.41,7.6-15,9,1.26-4.3,6.16-10.33,11.17-9.43.33.12,6.19-.33,3.82.42Zm13.49,3.8c15.61-1.07,30.12,8.83,36.47,22.84a59,59,0,0,1,4.81,27.08c-.35,6.54-.54,14.93-4.86,20.26-2,2.5-9.19,6.49-8.32,8s2.9,2.34,5.08,3.13c-6.66,16.28-20.56,32.35-39.27,31.91-19.57,2.09-38.94-15.32-37.94-35,4-21,8.66-42.13,15.34-62.41C187.46,108.31,198.69,101.88,210.2,102.27Z" />
    <path
       style=""
       id="path3032"
       class="cls-2"
       d="M289.19,42.11c-19.45,2.32-38.87,5.13-58.31,7.3-4.66.82-3,8.19,1.38,7.82,7.27,1.08,16.24-.18,22.07,5-9.67,33-21.6,65.47-32.25,98.24-7.71,24.45-17.16,48.48-23.8,73.2a16.93,16.93,0,0,0,14.8,19.21c18.93,2.75,37.23-7.34,49.92-20.61a237.21,237.21,0,0,0,17.14-18.31c-4.08-2.3-8.46-6.67-11.7-.75-9.53,7.68-17.52,18-28.64,23.18-3.26,1.11-9.76,1-8.17-4.15,5.48-21.34,14.06-42,20.55-63.19,13.73-40.55,27.89-81.07,40.8-121.88,1.37-3.1-.28-5.69-3.79-5Z" />
    <path
       style=""
       id="path3034"
       class="cls-2"
       d="M350.21,115.51c-18.58,2.7-37.34,4.92-55.84,7.56-3.95,2.05-1.75,8.56,2.85,7.42,5.78,1,13.92-1,17.76,4.13.54,10-5.09,19.38-7.48,29-7.19,23.44-17.05,46.31-21,70.56-1.83,9.49,5.73,18.62,15.24,19.31,20.54,2.92,40.52-7.24,54.77-21.32,14.41-13.51,26.91-29,39.42-44.37-5.07,16.69-12.3,33-14,50.35-.5,9.68,9.44,16.16,18.38,15.48,12.69,1.23,25-3.75,34-12.5,7.75-7.4,16.12-14.5,22.31-23.09,0-3.31-4.91-3.73-7-5.69-8.87,8.68-17.4,18.74-28.91,23.58-2.61,1.08-6.74-.07-4.83-3.62,11.18-37.47,25.33-74.26,37.1-111.6-1.54-4.18-8.25-1.58-11.77-2.61-6.44.58-13.82-1.58-19.76,1.39-11.69,22.67-21.49,46.89-37.92,66.63-14.25,17-28,35.64-48.12,46-4.13,1.55-9.62,3.73-13.72,1.48-5-4.14.91-10.74,1.19-15.64,10.11-33.61,21.9-66.79,31.58-100.48.13-2.24-2.65-2.29-4.25-2Z" />
    <path
       style=""
       id="path3036"
       class="cls-2"
       d="M535.06,116a283.55,283.55,0,0,0-48.73,9.9c-2.75,3.6,2.74,9.67,7,6.81,8-.57,17.1-4.42,24.72-.43,6.49,7.24,6.92,17.86,10.6,26.63,2.53,9,6.24,18.39,7.81,27.28C523.43,201,510.73,216.34,496,229.59c-3.84,3.08-8.67,6.36-13.61,3.38-8.84-2.56-19.7-8-27.93-.95-6.22,4.83-5.14,14.89,1.33,18.94,12.56,7.68,29.12,3.29,39.68-5.88,15.44-12.1,29.71-27.87,45.61-44,6.19,15.59,8.83,33,17.78,47.22,6,8.5,17.85,7.58,26.91,6.11,14.53-4.54,24.31-17.51,34.37-28.12,2.59-2.29,6.22-7.55,1.16-9.24-5.71-3.07-9.68,4.54-13.63,7.27-5.21,3.52-9.14,11.22-16,11.42-9-1.12-9.95-12.12-12.83-18.81-4.85-15-10.1-30-13-45.47C576.16,159.37,585,145,599.19,137.37c9.61-1.64,18.48,7.1,28.3,3.76,9.3-1.43,13-15.3,4.61-20.38-8.75-6.91-21.46-4-30.72.37-12.69,6.89-22.52,18.12-32.58,28.19-2.23.95-6.78,10.86-7.54,5.5-3.42-11.67-5.49-24.69-13.34-34.3A17.15,17.15,0,0,0,535.06,116Z" />
    <path
       style=""
       id="path3905"
       class="cls-2"
       d="M228.89,7.93a59.44,59.44,0,0,0-25.19,8c-5.49,3.26-11,6.26-15.58,10.83s-8.13,9.78-12,14.77a68.57,68.57,0,0,0-7.71,12.22c-2,4.3-4,8.6-6.09,12.85s-3,8.26-4.65,12.55c-2.59,6.86-.22,6.66-4.1,7.7-11.16,3-27.29.37-32.57,2.7-2,.86-4.34,5.63-3.13,8.56,1.06,2.57,4.79,2.23,13.51,2.5,1.44.05,17.94-.24,18-.5-3.05,15.23-5.84,30.72-9.51,46.54-1.74,10.47-4.7,19.53-7,31-1.66,6.24-2.64,10.11-4.13,17-1.44,5.4-2,7.86-3.16,13.63-2.63,15.83-7,31.66-14,46.13-5,10.32-16.31,20.16-28.31,17,.09-4,1.73-8,.91-12-.85-4.09-4.28-7.26-8.12-8.89a16.68,16.68,0,0,0-10.4-1c-6.37,1.56-12.17,8.94-11.84,15.6.45,9.47,10.22,12.95,18.31,15.06,15.94,4.15,33.38-2.53,46.63-11.19,14.63-9.56,22.23-23.91,29.09-39.57,2.8-6.38,5.62-12.61,8.11-19.2s3.69-8.86,5.43-14.26c1.36-4.26,1.73-7.33,3.16-12.25,4.56-22.87,9.87-45.36,15.68-68,1.71-6.69.61-15.59,8.76-17.61,10.51-1.84,21.58.14,32.72-1.34,5.34-.71,8.68-13.21,3.42-14.08-6-.9-13,0-19,.07-3,.07-6,1.21-9,1.36-1.37.06-6.75,1.26-7.64,0-.39-.54-.38-3.25-.34-3.91.46-7.27,3.15-14.49,5.31-21.39,4.75-15.23,10.8-30.69,26.38-37.87,4.63-1.94,11.38-2.89,15.31-.76.28.15-.93,6.81-1,7.54a14.91,14.91,0,0,0,1.19,7.67c2.92,5.63,11.27,7.23,17,6.15,10.93-2.08,16.07-12.2,10.38-22-3.89-6.69-10.29-9.19-17.56-10.69A60,60,0,0,0,228.89,7.93Z" />
  </g>
  <g
     inkscape:groupmode="layer"
     id="layer1"
     inkscape:label="Layer 1"
     style="display:inline" />
</svg>
